<?xml version="1.0" standalone="no"?>
<!DOCTYPE svg PUBLIC "-//W3C//DTD SVG 20010904//EN"
 "http://www.w3.org/TR/2001/REC-SVG-20010904/DTD/svg10.dtd">
<svg version="1.0" xmlns="http://www.w3.org/2000/svg"
 width="833.000000pt" height="388.000000pt" viewBox="0 0 833.000000 388.000000"
 preserveAspectRatio="xMidYMid meet">
<metadata>
Created by potrace 1.15, written by Peter Selinger 2001-2017
</metadata>
<g transform="translate(0.000000,388.000000) scale(0.100000,-0.100000)"
fill="#000000" stroke="none">
<path d="M595 3732 c-120 -42 -214 -125 -268 -240 l-32 -67 0 -1491 0 -1490
37 -75 c46 -93 122 -168 215 -212 l68 -32 427 -3 c411 -3 428 -2 489 18 134
45 238 151 285 290 18 53 19 114 19 1505 0 1391 -1 1452 -19 1505 -47 138
-151 245 -284 289 -58 20 -83 21 -474 21 -365 -1 -419 -3 -463 -18z m796 -253
c104 -35 139 -143 80 -244 -17 -27 -173 -252 -349 -500 l-319 -450 316 -5
c174 -3 323 -9 333 -13 23 -12 41 -62 34 -92 -4 -14 -16 -35 -27 -46 -19 -19
-30 -20 -379 -17 -346 3 -360 4 -387 24 -67 50 -90 125 -59 197 7 18 165 246
350 507 l336 475 -319 3 -319 2 -26 31 c-34 40 -33 74 3 110 l29 29 335 0
c223 0 345 -4 368 -11z"/>
<path d="M2640 3730 c-121 -44 -222 -143 -272 -268 l-23 -57 0 -1465 c0 -1395
1 -1468 18 -1518 46 -130 155 -240 281 -282 61 -20 78 -21 492 -18 l429 3 65
31 c119 57 203 153 241 275 18 58 19 116 19 1504 0 1388 -1 1446 -19 1504 -38
122 -122 218 -241 275 l-65 31 -435 2 c-413 3 -438 2 -490 -17z m875 -263 c21
-17 27 -32 27 -62 0 -30 -6 -45 -27 -62 -26 -23 -27 -23 -346 -23 -362 0 -370
-1 -388 -68 -6 -20 -11 -110 -11 -199 l0 -163 345 0 c384 0 404 -3 423 -59 8
-22 8 -40 0 -61 -20 -58 -32 -60 -418 -60 l-350 0 0 -170 c0 -190 10 -233 55
-250 15 -6 158 -10 345 -10 318 0 319 0 345 -23 38 -32 38 -92 0 -124 -26 -23
-26 -23 -368 -23 -337 0 -343 1 -392 24 -27 12 -67 41 -87 64 -66 73 -68 90
-68 593 0 286 4 466 11 499 11 53 55 119 100 152 59 44 87 47 441 48 337 0
337 0 363 -23z"/>
<path d="M4715 3736 c-143 -46 -252 -155 -296 -297 -18 -58 -19 -116 -19
-1504 0 -1388 1 -1446 19 -1504 38 -122 122 -218 241 -275 l65 -31 429 -3
c414 -3 431 -2 492 18 123 41 223 139 277 270 l22 55 3 1434 c1 941 -1 1454
-8 1490 -24 134 -122 261 -247 323 l-68 33 -435 2 c-332 2 -444 -1 -475 -11z
m770 -269 c36 -30 39 -88 7 -120 -22 -22 -29 -22 -318 -27 l-296 -5 -24 -28
-24 -28 0 -550 0 -550 -25 -24 c-33 -34 -87 -34 -120 0 l-25 24 0 559 c0 397
3 569 12 593 16 49 63 112 101 134 67 42 84 43 389 44 295 1 297 1 323 -22z"/>
<path d="M6756 3729 c-132 -46 -236 -152 -282 -289 -18 -53 -19 -114 -19
-1505 0 -1391 1 -1452 19 -1505 47 -139 151 -245 285 -290 61 -20 78 -21 489
-18 l427 3 68 32 c93 44 169 119 215 212 l37 75 0 1490 0 1491 -32 68 c-44 93
-119 169 -212 215 l-75 37 -430 2 c-412 3 -434 2 -490 -18z m815 -254 c63 -22
113 -66 143 -127 l26 -52 0 -495 c0 -458 -2 -499 -19 -536 -27 -60 -66 -101
-123 -129 l-52 -26 -315 0 c-296 0 -319 2 -361 21 -58 26 -96 62 -128 124
l-27 50 0 490 0 490 30 60 c33 64 81 109 141 130 59 21 623 21 685 0z m128
-1640 c16 -8 31 -22 35 -30 3 -9 6 -301 6 -649 0 -626 0 -634 -21 -660 -32
-41 -113 -34 -135 11 -5 10 -11 234 -14 497 l-5 479 -130 -184 c-71 -101 -140
-194 -152 -206 -59 -60 -164 11 -134 90 13 34 426 617 457 645 29 26 54 28 93
7z"/>
<path d="M6934 3308 c-43 -20 -45 -34 -42 -442 l3 -389 265 374 c145 206 280
395 298 422 l34 47 -269 -1 c-163 0 -276 -4 -289 -11z"/>
<path d="M7268 2705 l-297 -420 266 -3 c284 -3 297 -1 323 48 7 12 9 151 8
407 l-3 387 -297 -419z"/>
</g>
</svg>
